<?xml version="1.0" encoding="utf-8"?>
<!-- Generator: Adobe Illustrator 16.0.0, SVG Export Plug-In . SVG Version: 6.00 Build 0)  -->
<!DOCTYPE svg PUBLIC "-//W3C//DTD SVG 1.1//EN" "http://www.w3.org/Graphics/SVG/1.1/DTD/svg11.dtd">
<svg version="1.1" id="Layer_1" xmlns="http://www.w3.org/2000/svg" xmlns:xlink="http://www.w3.org/1999/xlink" x="0px" y="0px"
	 width="38px" height="43px" viewBox="0 0 38 43" enable-background="new 0 0 38 43" xml:space="preserve">
<g>
	<path fill="#FFFFFF" d="M34.545,26.666c5.649-7.295,4.217-17.721-3.199-23.278C23.926-2.17,13.33-0.759,7.68,6.535
		c-5.105,6.592-4.429,15.731,1.217,21.535L0,39.558l4.582,3.434l8.948-11.552C20.649,34.968,29.537,33.131,34.545,26.666z
		 M13.382,26.58c-5.596-4.192-6.68-12.079-2.417-17.583c4.26-5.5,12.28-6.571,17.876-2.377c5.593,4.192,6.679,12.083,2.417,17.583
		C26.996,29.708,18.975,30.771,13.382,26.58z"/>
</g>
</svg>
