<?xml version="1.0" encoding="utf-8"?>
<!-- Generator: Adobe Illustrator 16.0.0, SVG Export Plug-In . SVG Version: 6.00 Build 0)  -->
<!DOCTYPE svg PUBLIC "-//W3C//DTD SVG 1.1//EN" "http://www.w3.org/Graphics/SVG/1.1/DTD/svg11.dtd">
<svg version="1.1" id="Layer_1" xmlns="http://www.w3.org/2000/svg" xmlns:xlink="http://www.w3.org/1999/xlink" x="0px" y="0px"
	 width="200px" height="55px" viewBox="0 0 200 55" enable-background="new 0 0 200 55" xml:space="preserve">
<g>
	<g>
		<path fill-rule="evenodd" clip-rule="evenodd" fill="#FFFFFF" d="M31.572,1.634h-10.73v51.27h10.01
			c9.511,0,13.761-5.04,13.761-13.971v-2.879c0-5.33-1.591-8.431-5.041-10.081c3.24-2.02,5.041-4.04,5.041-9.51v-1.87
			C44.612,7.894,41.082,1.634,31.572,1.634z M31.362,45.555h-3.17v-16.42h3.24c5.33,0,6.26,2.67,6.26,7.779
			C37.692,41.954,37.262,45.555,31.362,45.555z M31.501,22.654h-3.31V8.544h3.021c4.829,0,6.479,2.38,6.479,6.91
			C37.692,20.134,36.402,22.654,31.501,22.654z M15.882,2.404c-0.3-0.33-0.681-0.63-1.161-0.9c-0.47-0.28-0.939-0.42-1.4-0.42
			c-0.25,0-0.46,0.09-0.62,0.26c-0.15,0.17-0.23,0.38-0.23,0.64c0,0.29,0.1,0.49,0.311,0.59c0.209,0.09,0.43,0.18,0.669,0.25
			c0.73,0.21,1.28,0.59,1.65,1.13c0.37,0.54,0.561,1.19,0.561,1.95c0,0.61-0.121,1.14-0.36,1.6c-0.24,0.47-0.56,0.85-0.96,1.15
			c-0.4,0.31-0.859,0.53-1.39,0.67c-0.53,0.14-1.07,0.2-1.64,0.17v-7.56c0-0.27-0.01-0.47-0.03-0.61
			c-0.02-0.14-0.081-0.25-0.161-0.31c-0.08-0.07-0.2-0.11-0.36-0.13c-0.149-0.01-0.37-0.02-0.649-0.02
			c-0.75,0-1.431,0.12-2.061,0.37c-0.64,0.24-1.18,0.59-1.63,1.04c-0.46,0.44-0.81,0.97-1.07,1.59c-0.26,0.62-0.39,1.3-0.39,2.06
			c0,0.8,0.16,1.56,0.5,2.28c0.329,0.71,0.82,1.32,1.459,1.82c0.61,0.48,1.3,0.82,2.06,1.02c0.77,0.2,1.53,0.3,2.29,0.3
			c0.83,0,1.6-0.11,2.32-0.33c0.71-0.23,1.33-0.56,1.871-1.01c0.529-0.44,0.95-1,1.259-1.66c0.3-0.66,0.45-1.43,0.45-2.31
			c0-0.64-0.1-1.28-0.31-1.94C16.652,3.444,16.332,2.884,15.882,2.404z M9.712,9.294c-0.461-0.05-0.9-0.16-1.3-0.34
			c-0.4-0.17-0.74-0.42-1.021-0.72c-0.28-0.3-0.509-0.66-0.67-1.06c-0.16-0.4-0.25-0.84-0.25-1.31c0-0.5,0.09-0.93,0.25-1.31
			c0.161-0.38,0.39-0.7,0.681-0.97c0.29-0.27,0.63-0.47,1.02-0.61c0.4-0.14,0.83-0.23,1.291-0.26V9.294z M2.521,24.204
			c0.141-0.14,0.211-0.32,0.211-0.55c0-0.16-0.021-0.32-0.07-0.49c-0.041-0.16-0.07-0.34-0.07-0.53c0-0.08,0.021-0.15,0.041-0.24
			c0.02-0.08,0.089-0.15,0.209-0.21c0.121-0.06,0.3-0.11,0.561-0.14c0.25-0.04,0.61-0.06,1.069-0.06h9.09
			c0.72,0,1.209,0.04,1.47,0.12c0.27,0.09,0.41,0.26,0.41,0.53c0,0.19-0.03,0.37-0.07,0.53c-0.05,0.17-0.07,0.33-0.07,0.49
			c0,0.23,0.07,0.41,0.21,0.55c0.15,0.14,0.319,0.21,0.529,0.21c0.25,0,0.45-0.1,0.6-0.3c0.15-0.2,0.221-0.42,0.221-0.66
			c0-0.19-0.011-0.38-0.03-0.56c-0.02-0.17-0.05-0.35-0.09-0.53c-0.04-0.18-0.07-0.37-0.09-0.58c-0.02-0.21-0.03-0.44-0.03-0.69
			c0-0.27,0.011-0.5,0.03-0.7c0.02-0.2,0.05-0.39,0.09-0.56c0.041-0.17,0.07-0.34,0.09-0.5c0.02-0.17,0.03-0.34,0.03-0.54
			c0-0.28-0.071-0.51-0.221-0.69c-0.15-0.18-0.35-0.27-0.6-0.27c-0.21,0-0.379,0.08-0.529,0.22c-0.141,0.14-0.21,0.32-0.21,0.54
			c0,0.17,0.02,0.33,0.07,0.49c0.04,0.17,0.07,0.34,0.07,0.54c0,0.25-0.13,0.42-0.37,0.51c-0.25,0.09-0.75,0.13-1.51,0.13h-2.98
			c-0.49,0-1-0.02-1.51-0.06c-0.51-0.05-0.98-0.22-1.41-0.52c-0.42-0.29-0.72-0.69-0.911-1.2c-0.18-0.5-0.28-1-0.28-1.49
			c0-0.58,0.15-1.11,0.43-1.59c0.28-0.47,0.72-0.79,1.311-0.95c0.209-0.06,0.45-0.11,0.72-0.14c0.26-0.03,0.54-0.05,0.819-0.05
			c0.28-0.01,0.57-0.02,0.85-0.02h2.96c0.72,0,1.209,0.05,1.47,0.13c0.27,0.08,0.41,0.25,0.41,0.52c0,0.19-0.03,0.37-0.07,0.54
			c-0.05,0.16-0.07,0.32-0.07,0.49c0,0.22,0.07,0.4,0.21,0.54c0.15,0.14,0.319,0.22,0.529,0.22c0.25,0,0.45-0.11,0.6-0.31
			c0.15-0.2,0.221-0.42,0.221-0.65c0-0.2-0.011-0.38-0.03-0.56c-0.02-0.18-0.05-0.36-0.09-0.54c-0.04-0.17-0.07-0.37-0.09-0.58
			c-0.02-0.2-0.03-0.43-0.03-0.69c0-0.26,0.011-0.5,0.03-0.7c0.02-0.2,0.05-0.39,0.09-0.56c0.041-0.17,0.07-0.33,0.09-0.5
			c0.02-0.16,0.03-0.34,0.03-0.53c0-0.29-0.071-0.52-0.221-0.7c-0.15-0.17-0.35-0.26-0.6-0.26c-0.21,0-0.379,0.07-0.529,0.21
			c-0.141,0.14-0.21,0.32-0.21,0.55c0,0.16,0.02,0.32,0.07,0.49c0.04,0.16,0.07,0.34,0.07,0.53c0,0.25-0.13,0.42-0.37,0.51
			c-0.25,0.09-0.75,0.14-1.51,0.14h-4.34c-0.609,0-1.189,0.08-1.72,0.23c-0.539,0.16-1.01,0.47-1.43,0.95
			c-0.37,0.43-0.65,0.92-0.83,1.47c-0.19,0.55-0.28,1.11-0.28,1.67c0,0.73,0.12,1.36,0.35,1.89c0.24,0.52,0.61,1.03,1.1,1.52h-4.08
			c-0.4,0-0.7,0.04-0.88,0.1c-0.189,0.07-0.28,0.25-0.28,0.53c0,0.21,0.041,0.39,0.12,0.54c0.08,0.16,0.12,0.38,0.12,0.66
			c0,0.23-0.04,0.44-0.12,0.65c-0.079,0.21-0.12,0.48-0.12,0.82c0,0.18,0.07,0.37,0.22,0.56s0.35,0.29,0.6,0.29
			C2.202,24.414,2.382,24.344,2.521,24.204z M58.942,15.964c-4.459,0-7.85,2.08-9.58,5.25c-1,1.88-1.361,4.47-1.361,7.42v12.02
			c0,2.96,0.36,5.55,1.361,7.42c1.729,3.17,5.12,5.26,9.58,5.26c3.38,0,6.05-1.23,7.991-3.24c1.879-1.949,2.959-7.541,2.959-10.572
			l-7.351,2.793c-0.139,1.58-0.79,3.67-3.6,3.67c-2.23,0-3.6-1.29-3.6-3.6v-4.971l14.55-5.532v-4.548
			C69.892,20.934,65.711,15.964,58.942,15.964z M15.492,24.544c-0.44-0.25-0.95-0.41-1.529-0.49c-0.58-0.07-1.191-0.11-1.851-0.11
			c-0.26,0-0.51,0.06-0.729,0.18c-0.22,0.12-0.341,0.34-0.341,0.65c0,0.32,0.111,0.55,0.32,0.69c0.2,0.13,0.57,0.2,1.09,0.2h0.71
			c0.27,0,0.53,0.02,0.79,0.05c0.26,0.04,0.5,0.12,0.72,0.24c0.21,0.12,0.38,0.28,0.51,0.49c0.13,0.21,0.19,0.48,0.19,0.8
			c0,0.3-0.05,0.55-0.139,0.76c-0.081,0.211-0.231,0.381-0.441,0.5c-0.209,0.131-0.48,0.221-0.82,0.28
			c-0.33,0.06-0.75,0.09-1.259,0.09H7.302c-0.21,0-0.339-0.03-0.38-0.1c-0.04-0.07-0.07-0.23-0.07-0.48v-1.96
			c0-0.51-0.08-0.83-0.239-0.98c-0.161-0.15-0.341-0.23-0.551-0.23c-0.26,0-0.46,0.08-0.599,0.23c-0.141,0.15-0.211,0.45-0.211,0.91
			v2.23c0,0.16-0.019,0.27-0.06,0.311c-0.03,0.049-0.14,0.069-0.3,0.069H2.682c-0.291,0-0.55,0.05-0.78,0.14
			c-0.22,0.101-0.33,0.34-0.33,0.711c0,0.379,0.11,0.619,0.33,0.72c0.23,0.1,0.49,0.149,0.81,0.149h1.82
			c0.319,0,0.509,0.021,0.589,0.061c0.091,0.05,0.13,0.17,0.13,0.38v0.78c0,0.24,0.081,0.439,0.25,0.6
			c0.17,0.17,0.35,0.25,0.54,0.25c0.341,0,0.56-0.109,0.66-0.311c0.1-0.209,0.15-0.539,0.15-0.979c0-0.35,0.05-0.56,0.14-0.649
			c0.09-0.09,0.3-0.131,0.65-0.131h4.93c0.46,0,0.85-0.01,1.15-0.029c0.31-0.01,0.57-0.04,0.8-0.07c0.22-0.04,0.411-0.09,0.58-0.141
			c0.161-0.049,0.331-0.119,0.49-0.209c0.48-0.25,0.82-0.62,1.03-1.11c0.2-0.5,0.31-1,0.31-1.52c0-0.79-0.13-1.42-0.39-1.88
			C16.282,25.164,15.932,24.804,15.492,24.544z M141.521,8.974h7.35v-7.34h-7.35V8.974z M197.893,31.882v-4.548
			c0-6.4-4.182-11.37-10.951-11.37c-4.459,0-7.85,2.08-9.579,5.25c-1.001,1.88-1.36,4.47-1.36,7.42v12.02
			c0,2.96,0.359,5.55,1.36,7.42c1.729,3.17,5.12,5.26,9.579,5.26c3.381,0,6.051-1.23,7.991-3.24c1.88-1.949,2.96-7.541,2.96-10.572
			l-7.352,2.793c-0.139,1.58-0.789,3.67-3.6,3.67c-2.229,0-3.6-1.29-3.6-3.6v-4.971L197.893,31.882z M141.521,52.904h7.35v-36.51
			h-7.35V52.904z M163.191,39.725h-0.142l-4.899-23.331h-7.77l9.499,36.51h6.48l9.51-36.51h-7.78L163.191,39.725z M84.072,15.964
			c-3.31,0-6.05,1.15-7.99,3.09c-1.951,1.95-3.1,4.68-3.32,7.92h7.13c0.43-2.37,2.31-3.67,4.18-3.67c2.729,0,3.67,1.87,3.67,4.32
			v3.82c-1.51-0.07-2.52-0.22-3.53-0.22c-9.21,0-11.59,4.029-11.59,12.39c0,8.06,4.54,9.72,7.92,9.72c3.53,0,5.111-1.51,7.061-4.18
			h0.139v3.75h7.34v-25.42C95.082,19.844,90.192,15.964,84.072,15.964z M81.5,47.143C77.118,46.929,77.11,32.777,88.071,37
			C88.071,37,87.627,47.441,81.5,47.143z M129.143,23.594h-9.07V1.634h-7.35v51.27h7.35v-22.83h9.07v22.83h7.35V1.634h-7.35V23.594z
			 M106.393,1.634h-7.351v14.76h-3.67v5.76h3.67v22.18c0,3.891,2.24,8.57,8.861,8.57h3.02v-6.92c-3.24,0-4.529-0.21-4.529-3.6
			v-20.23h4.529v-5.76h-4.529V1.634z"/>
	</g>
</g>
</svg>
