<?xml version="1.0" encoding="utf-8"?>
<!-- Generator: Adobe Illustrator 16.0.0, SVG Export Plug-In . SVG Version: 6.00 Build 0)  -->
<!DOCTYPE svg PUBLIC "-//W3C//DTD SVG 1.1//EN" "http://www.w3.org/Graphics/SVG/1.1/DTD/svg11.dtd">
<svg version="1.1" id="Layer_1" xmlns="http://www.w3.org/2000/svg" xmlns:xlink="http://www.w3.org/1999/xlink" x="0px" y="0px"
	 width="47px" height="86px" viewBox="0 0 47 86" enable-background="new 0 0 47 86" xml:space="preserve">
<g>
	<path fill-rule="evenodd" clip-rule="evenodd" fill="#FFFFFF" d="M0,86v-5.929h43.475V86H0z"/>
	<path fill="#FFFFFF" d="M42.907,32.286c6.465-8.548,4.824-20.767-3.659-27.279c-8.489-6.513-20.611-4.859-27.076,3.688
		C6.331,16.42,7.106,27.13,13.565,33.932L3.386,47.395l5.242,4.024L18.866,37.88C27.01,42.016,37.178,39.863,42.907,32.286z
		 M18.696,32.187c-6.402-4.914-7.642-14.156-2.764-20.606c4.874-6.445,14.049-7.7,20.453-2.786
		c6.397,4.912,7.64,14.159,2.764,20.606C34.271,35.852,25.095,37.097,18.696,32.187z"/>
</g>
</svg>
